<svg xmlns="http://www.w3.org/2000/svg" width="14" height="16" viewBox="0 0 14 16"><defs><style>.a{fill:#37A661;}</style></defs><path class="a" d="M13.625,5H.375A.376.376,0,0,1,0,4.625V3.5A1.5,1.5,0,0,1,1.5,2H3V.375A.376.376,0,0,1,3.375,0h1.25A.376.376,0,0,1,5,.375V2H9V.375A.376.376,0,0,1,9.375,0h1.25A.376.376,0,0,1,11,.375V2h1.5A1.5,1.5,0,0,1,14,3.5V4.625A.376.376,0,0,1,13.625,5ZM.375,6h13.25A.376.376,0,0,1,14,6.375V14.5A1.5,1.5,0,0,1,12.5,16H1.5A1.5,1.5,0,0,1,0,14.5V6.375A.376.376,0,0,1,.375,6ZM4,12.375A.376.376,0,0,0,3.625,12H2.375A.376.376,0,0,0,2,12.375v1.25A.376.376,0,0,0,2.375,14h1.25A.376.376,0,0,0,4,13.625Zm0-4A.376.376,0,0,0,3.625,8H2.375A.376.376,0,0,0,2,8.375v1.25A.376.376,0,0,0,2.375,10h1.25A.376.376,0,0,0,4,9.625Zm4,4A.376.376,0,0,0,7.625,12H6.375A.376.376,0,0,0,6,12.375v1.25A.376.376,0,0,0,6.375,14h1.25A.376.376,0,0,0,8,13.625Zm0-4A.376.376,0,0,0,7.625,8H6.375A.376.376,0,0,0,6,8.375v1.25A.376.376,0,0,0,6.375,10h1.25A.376.376,0,0,0,8,9.625Zm4,4A.376.376,0,0,0,11.625,12h-1.25a.376.376,0,0,0-.375.375v1.25a.376.376,0,0,0,.375.375h1.25A.376.376,0,0,0,12,13.625Zm0-4A.376.376,0,0,0,11.625,8h-1.25A.376.376,0,0,0,10,8.375v1.25a.376.376,0,0,0,.375.375h1.25A.376.376,0,0,0,12,9.625Z"/></svg>