<svg xmlns="http://www.w3.org/2000/svg" width="20" height="12.781" viewBox="0 0 20 12.781"><defs><style>.a{fill:#37a661;}</style></defs><g transform="translate(-1 -3)"><g transform="translate(13689.773 6843.018)"><g transform="translate(-13688.773 -6840.018)"><path class="a" d="M766.576,896.742h-7.526c-.784,0-1.567,0-2.351,0-.1,0-.127-.026-.126-.123q.005-1.778,0-3.555,0-1.984,0-3.967,0-2.491,0-4.982c0-.153,0-.152.157-.152l4.672,0,4.622,0,4.662,0,4.622,0c.385,0,.77,0,1.155,0,.084,0,.108.027.108.11q0,2.23,0,4.459,0,1.908,0,3.817,0,2.014,0,4.027c0,.09,0,.181,0,.271s-.026.1-.1.1c-.539,0-1.078,0-1.618,0h-8.279Zm-8.389-11.991c.049.057.074.09.1.119q.915.917,1.832,1.833l4.015,4.011c.576.575,1.157,1.144,1.724,1.728a1,1,0,0,0,1.412.013q2.55-2.561,5.111-5.112,1.232-1.231,2.464-2.463a.773.773,0,0,0,.078-.11.632.632,0,0,0-.138-.031c-.539,0-1.079,0-1.618,0H758.318C758.286,884.74,758.254,884.745,758.188,884.751Zm-.159,11.169.013.027h17.1c-.051-.054-.079-.086-.109-.115l-3.252-3.251q-.842-.841-1.682-1.683c-.058-.058-.1-.072-.163-.006q-.727.735-1.462,1.463c-.285.282-.565.573-.871.83a1.6,1.6,0,0,1-1.37.32,1.781,1.781,0,0,1-.953-.541q-1.031-1.029-2.059-2.06c-.066-.066-.107-.075-.177,0q-.9.9-1.8,1.8l-2.9,2.9C758.237,895.707,758.134,895.814,758.029,895.92Zm-.661-.469c.049-.038.082-.059.108-.085q.306-.3.611-.61l2.015-2.017q1.2-1.2,2.4-2.4c.057-.056.063-.094,0-.156q-.7-.692-1.394-1.39l-3.622-3.622c-.031-.031-.068-.055-.122-.1Zm18.4.006v-10.38c-.042.037-.066.055-.086.075l-.413.411-4.593,4.592c-.109.109-.109.109,0,.217l1.6,1.6,3.252,3.253C775.6,895.294,775.674,895.364,775.769,895.457Z" transform="translate(-756.573 -883.962)"/></g></g></g></svg>