<?xml version="1.0" standalone="no"?>
<!DOCTYPE svg PUBLIC "-//W3C//DTD SVG 20010904//EN"
 "http://www.w3.org/TR/2001/REC-SVG-20010904/DTD/svg10.dtd">
<svg version="1.0" xmlns="http://www.w3.org/2000/svg"
 width="584.000000pt" height="584.000000pt" viewBox="0 0 584.000000 584.000000"
 preserveAspectRatio="xMidYMid meet">
<metadata>
Created by potrace 1.11, written by Peter Selinger 2001-2013
</metadata>
<g transform="translate(0.000000,584.000000) scale(0.100000,-0.100000)"
fill="#000000" stroke="none">
<path d="M3350 5315 c-96 -13 -391 -51 -655 -84 -264 -34 -490 -66 -502 -72
-38 -20 -43 -59 -43 -330 0 -201 -3 -259 -12 -259 -7 0 -436 -1 -953 -2 l-940
-3 -55 -28 c-73 -38 -134 -98 -162 -161 l-23 -51 0 -1675 0 -1675 23 -45 c37
-75 78 -117 150 -152 l67 -33 2639 -3 c1748 -1 2659 1 2695 8 106 20 175 67
229 158 l27 47 3 1684 2 1684 -24 52 c-34 75 -86 128 -158 161 l-63 29 -930 3
-930 2 -5 369 c-4 291 -8 371 -19 384 -19 24 -141 21 -361 -8z m94 -301 c14
-13 16 -48 16 -230 l0 -214 -520 0 -520 0 0 158 c0 111 4 163 13 175 10 14 93
26 487 71 566 64 505 59 524 40z m2123 -697 l38 -37 3 -1623 c2 -1529 1 -1624
-15 -1656 -10 -19 -34 -43 -53 -53 -33 -17 -131 -18 -2613 -18 -2849 0 -2616
-6 -2657 63 -20 31 -20 63 -20 1650 0 1753 -3 1653 52 1689 13 9 33 18 43 21
11 3 1182 4 2602 3 l2583 -1 37 -38z"/>
<path d="M349 4293 c-20 -3 -28 -11 -33 -35 -8 -41 -8 -3186 0 -3227 13 -66
-195 -61 2623 -58 l2560 2 30 29 31 30 0 1611 0 1612 -21 19 c-21 19 -79 19
-2593 20 -1414 1 -2583 -1 -2597 -3z m2264 -624 c109 -20 242 -124 288 -226
11 -22 22 -63 25 -90 4 -26 11 -54 17 -60 5 -7 7 -19 4 -28 -4 -8 -2 -17 3
-20 13 -8 13 -1242 1 -1249 -5 -3 -7 -15 -4 -26 3 -11 -2 -35 -10 -52 -9 -18
-19 -46 -23 -63 -9 -36 -68 -119 -121 -169 -87 -82 -230 -118 -388 -98 -48 7
-93 16 -99 20 -6 5 -28 15 -48 21 -47 16 -161 135 -178 188 -7 21 -19 47 -26
58 -31 49 -35 148 -32 795 3 608 4 647 22 683 10 21 16 40 13 44 -4 3 3 17 13
31 11 13 20 30 20 37 0 14 109 135 122 135 5 0 27 12 51 28 69 44 230 64 350
41z m-1687 -32 c4 -4 115 -7 247 -7 222 0 279 -5 342 -30 11 -5 27 -11 35 -14
25 -10 54 -30 63 -43 4 -7 15 -13 22 -13 8 0 15 -6 15 -13 0 -8 9 -22 20 -32
11 -10 20 -23 20 -28 0 -6 7 -18 16 -28 17 -19 29 -60 45 -149 6 -30 15 -60
20 -66 6 -7 9 -44 8 -82 -1 -38 1 -74 5 -80 4 -7 3 -12 -2 -12 -4 0 -7 -28 -6
-62 2 -34 -1 -67 -5 -73 -5 -5 -11 -23 -14 -40 -17 -95 -62 -177 -146 -267
l-34 -37 13 -58 c6 -32 16 -83 21 -113 6 -30 13 -59 18 -65 4 -5 13 -37 20
-70 26 -127 44 -200 53 -212 5 -6 8 -20 7 -30 -1 -10 1 -25 4 -33 13 -32 37
-143 37 -169 0 -14 7 -37 16 -49 8 -12 12 -27 9 -32 -3 -5 1 -20 9 -32 30 -42
21 -58 -31 -59 -27 -1 -87 -2 -135 -3 -48 -1 -93 1 -99 4 -6 4 -17 45 -25 91
-8 45 -20 89 -27 97 -7 8 -11 18 -11 21 1 3 0 11 -1 16 -2 6 -9 42 -15 80 -14
89 -30 166 -37 185 -4 8 -5 21 -4 28 1 8 -2 19 -7 25 -5 7 -17 53 -26 102 -25
136 -41 186 -61 201 -28 20 -118 18 -144 -4 -22 -17 -22 -18 -21 -430 l0 -412
-140 0 -140 0 -2 963 c0 529 0 976 1 992 2 17 7 35 12 41 9 11 44 12 55 1z
m3094 -132 l0 -125 -137 0 c-76 0 -148 -3 -161 -6 l-23 -7 2 -866 2 -866 -144
0 -144 0 4 855 c3 796 2 857 -13 873 -15 14 -39 17 -162 17 l-144 0 0 125 0
125 460 0 460 0 0 -125z m675 90 c0 -16 4 -36 9 -44 5 -7 12 -43 17 -80 19
-153 30 -225 37 -235 3 -6 7 -20 7 -31 1 -11 4 -27 7 -35 3 -8 10 -58 16 -110
17 -157 44 -334 54 -354 5 -10 14 -55 18 -100 5 -44 14 -110 20 -146 6 -36 13
-90 16 -120 3 -30 12 -69 20 -87 8 -17 14 -43 14 -58 0 -14 4 -45 9 -68 6 -23
15 -91 22 -152 6 -60 16 -115 21 -122 5 -7 7 -17 4 -22 -4 -5 -2 -12 4 -16 5
-3 10 -23 10 -43 0 -20 5 -57 11 -81 8 -34 7 -46 -3 -52 -22 -14 -252 -11
-270 4 -11 8 -18 33 -21 72 -8 113 -29 260 -38 269 -5 6 -9 21 -9 35 0 50 -6
52 -173 54 l-157 2 -15 -30 c-15 -30 -29 -113 -45 -263 -5 -46 -13 -89 -19
-96 -6 -8 -9 -20 -6 -28 9 -22 -23 -28 -148 -28 -79 0 -109 3 -113 13 -7 21
14 188 26 203 7 7 11 26 9 41 -1 15 1 35 4 43 3 8 11 56 17 105 19 161 27 213
36 226 4 7 7 31 5 52 -1 21 2 43 7 50 10 12 25 97 42 245 5 40 12 78 17 85 4
6 6 25 4 40 -1 15 2 33 7 40 10 12 14 41 47 302 10 72 23 144 31 162 8 17 14
45 14 63 0 17 4 50 9 73 5 23 15 85 21 137 7 52 14 101 16 108 3 10 47 12 196
10 l193 -3 0 -30z"/>
<path d="M2409 3412 c-33 -21 -71 -68 -88 -107 -19 -43 -5 -1315 15 -1360 31
-69 73 -98 149 -100 62 -2 111 23 145 72 25 36 25 38 32 347 8 423 8 940 -1
1004 -9 60 -31 96 -87 134 -47 33 -124 38 -165 10z"/>
<path d="M1140 3066 c0 -200 4 -307 10 -311 6 -4 54 -6 106 -6 131 1 168 22
193 111 7 25 17 53 22 62 12 23 12 253 0 276 -6 9 -13 33 -16 53 -3 21 -15 49
-27 64 -33 43 -76 55 -188 55 l-100 0 0 -304z"/>
<path d="M4478 3188 c-9 -13 -21 -70 -27 -128 -7 -58 -16 -136 -21 -175 -5
-38 -12 -104 -16 -145 -3 -41 -10 -79 -14 -85 -4 -5 -10 -44 -14 -85 -4 -41
-10 -106 -15 -144 -11 -99 -2 -106 127 -106 126 0 138 9 127 99 -4 34 -11 64
-17 67 -5 3 -9 34 -7 68 1 33 -1 68 -4 76 -6 14 -17 110 -37 323 -5 54 -13
103 -17 110 -4 6 -6 28 -4 48 2 37 -21 99 -38 99 -5 0 -15 -10 -23 -22z"/>
</g>
</svg>
