<svg xmlns="http://www.w3.org/2000/svg" width="15.337" height="16.813" viewBox="0 0 15.337 16.813"><defs><style>.a{fill:#37a661;}</style></defs><path class="a" d="M17.36,28.417H6.4a1.106,1.106,0,0,1-1.1-1.1V14.9a1.106,1.106,0,0,1,1.1-1.1H17.36a1.106,1.106,0,0,1,1.1,1.1V27.319A1.106,1.106,0,0,1,17.36,28.417Zm-10.6-1.458H17v-11.7H6.758Z" transform="translate(-5.3 -11.604)"/><path class="a" d="M32.178,15.256a.732.732,0,0,1-.738-.738V2.458h-10.6a.729.729,0,1,1,0-1.458H31.783a1.115,1.115,0,0,1,.858.274.889.889,0,0,1,.257.652V14.519A.729.729,0,0,1,32.178,15.256Z" transform="translate(-17.561 -1)"/></svg>