<svg xmlns="http://www.w3.org/2000/svg" width="19.947" height="19.947" viewBox="0 0 19.947 19.947"><defs><style>.a{fill:#37a661;fill-rule:evenodd;}</style></defs><g transform="translate(-9.027 -67.991)"><g transform="translate(-3.434 -912.196)"><path class="a" d="M25.263,975.369a.4.4,0,0,0-.087.019,3.012,3.012,0,0,0-1.854,1.383,3.13,3.13,0,0,0-.236,2.111,9.462,9.462,0,0,0,2.631,4.44,9.26,9.26,0,0,0,4.385,2.721,3.178,3.178,0,0,0,2.146-.224,3.232,3.232,0,0,0,1.48-1.874.4.4,0,0,0-.162-.467L30.73,981.7l-.006-.006a.379.379,0,0,0-.044-.025.4.4,0,0,0-.137-.056h-.012L30.5,981.6h-.006a.387.387,0,0,0-.255.075.385.385,0,0,0-.037.025l-.012.019a.4.4,0,0,0-.044.044l-.622.629a7.02,7.02,0,0,1-2.774-2.809l.572-.567a.419.419,0,0,0,.031-.031l.025-.025s0,0,0-.006l.025-.025s0,0,0-.006l.012-.019.012-.012c0-.01.009-.021.012-.031s0,0,0-.006l.006-.012.012-.025c0-.01,0-.021.006-.031s0,0,0-.006,0-.025.006-.037,0,0,0-.006,0-.021,0-.031,0,0,0-.006,0-.021,0-.031,0-.008,0-.012,0-.021-.006-.031,0,0,0-.006a.4.4,0,0,0-.025-.068s0,0,0-.006a.408.408,0,0,0-.025-.05l-.006-.012-.006-.006-1.773-2.914a.4.4,0,0,0-.33-.193h-.037Zm-.143.878,1.449,2.4-.6.6a.4.4,0,0,0-.062.48,7.854,7.854,0,0,0,3.539,3.512.4.4,0,0,0,.442-.081l.641-.641,2.339,1.463a2.212,2.212,0,0,1-.983,1.133,2.382,2.382,0,0,1-1.617.15,8.7,8.7,0,0,1-3.981-2.5,8.888,8.888,0,0,1-2.42-4.029,2.343,2.343,0,0,1,.162-1.582A2.015,2.015,0,0,1,25.12,976.248Z" transform="translate(-5.725 9.262)"/><path class="a" d="M15.974,958.362a9.971,9.971,0,0,0-8.336,15.446l-1.115,3.722a.453.453,0,0,0,.582.558l3.643-1.257a9.974,9.974,0,1,0,5.226-18.47Zm0,.906a9.067,9.067,0,1,1-4.921,16.684.453.453,0,0,0-.395-.048l-3.013,1.04.923-3.079a.454.454,0,0,0-.06-.385,9.066,9.066,0,0,1,7.466-14.211Z" transform="translate(6.461 21.825)"/></g></g></svg>